<svg width="38" height="38" viewBox="0 0 38 38" fill="none" xmlns="http://www.w3.org/2000/svg">
<path d="M28.5 7.60002V6.46002H9.5V7.60002C9.5 11.4418 12.3891 15.9258 15.512 18.3966C15.9053 18.7078 15.9053 19.2926 15.512 19.6035C12.3891 22.0742 9.5 26.5582 9.5 30.4V31.54H28.5V30.4C28.5 26.5582 25.6109 22.0742 22.488 19.6035C22.0947 19.2922 22.0947 18.7074 22.488 18.3966C25.6109 15.9258 28.5 11.4418 28.5 7.60002Z" fill="#81D4FA"/>
<path d="M17.4701 23.3347C13.7496 25.3107 11.02 31.16 11.02 31.16H26.98C26.98 31.16 24.2505 25.3107 20.5299 23.3347C20.0526 23.0812 19.76 22.5804 19.76 22.04V18.2468C19.76 17.6377 20.1028 17.0662 20.6602 16.8215C22.8901 15.8433 24.5818 13.1799 25.1902 12.1133C25.3171 11.8906 25.1906 11.6056 24.9398 11.5528C21.0376 10.7308 16.7956 10.8441 13.0709 11.5607C12.8163 11.6098 12.6859 11.8967 12.8148 12.122C13.4269 13.1944 15.116 15.8464 17.3402 16.8218C17.8976 17.0662 18.24 17.6377 18.24 18.2465V22.04C18.24 22.5804 17.9474 23.0812 17.4701 23.3347Z" fill="#F7BC30"/>
<path d="M19 4.56001C14.8435 4.52505 10.4549 4.54481 8.73428 4.55507C8.31628 4.55773 7.97998 4.89707 7.97998 5.31507V6.54855C7.97998 6.93349 8.26574 7.25763 8.64802 7.30285C10.3041 7.50007 14.7721 7.98001 19 7.98001C23.2279 7.98001 27.6959 7.50007 29.3519 7.30285C29.7342 7.25725 30.02 6.93349 30.02 6.54855V5.31507C30.02 4.89707 29.6837 4.55773 29.2657 4.55507C27.545 4.54481 23.1564 4.52505 19 4.56001Z" fill="#8338EC"/>
<path d="M19 30.02C14.7721 30.02 10.3041 30.5 8.64802 30.6972C8.26574 30.7428 7.97998 31.0665 7.97998 31.4515V32.685C7.97998 33.103 8.31628 33.4423 8.73428 33.445C10.4549 33.4552 14.8435 33.475 19 33.44C23.1564 33.475 27.545 33.4552 29.2657 33.445C29.6837 33.4423 30.02 33.103 30.02 32.685V31.4515C30.02 31.0665 29.7342 30.7424 29.3519 30.6972C27.6959 30.5 23.2279 30.02 19 30.02Z" fill="#8338EC"/>
<rect x="20.8223" y="8.72998" width="4" height="4" rx="2" fill="white"/>
<path d="M22.8223 11.73C23.3745 11.73 23.8223 11.2823 23.8223 10.73C23.8223 10.1777 23.3745 9.72998 22.8223 9.72998C22.27 9.72998 21.8223 10.1777 21.8223 10.73C21.8223 11.2823 22.27 11.73 22.8223 11.73Z" fill="#FB5607"/>
<rect x="13.8223" y="8.72998" width="4" height="4" rx="2" fill="white"/>
<path d="M15.8223 11.73C16.3745 11.73 16.8223 11.2823 16.8223 10.73C16.8223 10.1777 16.3745 9.72998 15.8223 9.72998C15.27 9.72998 14.8223 10.1777 14.8223 10.73C14.8223 11.2823 15.27 11.73 15.8223 11.73Z" fill="#FB5607"/>
<path d="M19.2535 15.9088C20.2071 15.9088 20.9932 15.092 21.0994 14.041C21.1122 13.9123 21.0294 13.7977 20.9157 13.7977C20.2731 13.7977 18.2339 13.7977 17.5913 13.7977C17.4777 13.7977 17.3944 13.9128 17.4076 14.041C17.5138 15.092 18.3 15.9088 19.2535 15.9088Z" fill="#4A254B"/>
<path d="M28.4991 30.5984C28.4919 30.5984 28.4851 30.598 28.4779 30.5972C26.5095 30.3818 22.6604 30.02 18.9999 30.02C15.3394 30.02 11.4903 30.3818 9.52194 30.5976C9.41896 30.6064 9.32396 30.5342 9.31218 30.4293C9.30078 30.3252 9.37602 30.2313 9.48014 30.2199C11.4565 30.0033 15.3215 29.64 18.9999 29.64C22.6783 29.64 26.5433 30.0033 28.5197 30.2195C28.6238 30.2309 28.6994 30.3248 28.6876 30.4289C28.677 30.5266 28.5945 30.5984 28.4991 30.5984Z" fill="#4A254B"/>
<path d="M19 8.35999C15.3216 8.35999 11.4566 7.99671 9.4802 7.78049C9.37608 7.76909 9.30046 7.67523 9.31224 7.57111C9.32364 7.46623 9.41864 7.39137 9.522 7.40277C11.4904 7.61823 15.3394 7.97999 19 7.97999C22.6605 7.97999 26.5095 7.61823 28.4779 7.40239C28.5801 7.39137 28.6759 7.46585 28.6877 7.57073C28.6991 7.67485 28.6238 7.76871 28.5197 7.78011C26.5433 7.99671 22.6784 8.35999 19 8.35999Z" fill="#4A254B"/>
</svg>
