<svg width="36" height="36" viewBox="0 0 36 36" fill="none" xmlns="http://www.w3.org/2000/svg">
<path opacity="0.35" d="M18.0004 20.0997C12.6985 20.0997 8.40039 15.8016 8.40039 10.4997V6.29968H27.6004V10.4997C27.6004 15.8016 23.3023 20.0997 18.0004 20.0997Z" fill="black"/>
<path opacity="0.35" d="M29.3996 30.2997H6.59961V33.8997H29.3996V30.2997Z" fill="black"/>
<path d="M18.0004 17.6997C12.6985 17.6997 8.40039 21.9978 8.40039 27.2997V31.4997H27.6004V27.2997C27.6004 21.9978 23.3023 17.6997 18.0004 17.6997Z" fill="#A4E2F1"/>
<path d="M18.0004 18.8997C12.6985 18.8997 8.40039 14.6016 8.40039 9.29967V5.09967H27.6004V9.29967C27.6004 14.6016 23.3023 18.8997 18.0004 18.8997Z" fill="#A4E2F1"/>
<path d="M29.3996 29.0997H6.59961V32.6997H29.3996V29.0997Z" fill="#8338EC"/>
<path opacity="0.35" d="M29.3996 5.09967H6.59961V8.69967H29.3996V5.09967Z" fill="black"/>
<path d="M29.3996 3.89972H6.59961V7.49972H29.3996V3.89972Z" fill="#8338EC"/>
<path opacity="0.35" d="M25.8002 30.2997H10.2002L18.0002 21.8997L25.8002 30.2997Z" fill="black"/>
<path d="M25.8002 29.0997H10.2002L18.0002 20.6997L25.8002 29.0997Z" fill="#F7BC30"/>
</svg>
