<svg width="36" height="36" viewBox="0 0 36 36" fill="none" xmlns="http://www.w3.org/2000/svg">
<path opacity="0.3" d="M11.2487 29.625C10.6622 29.625 10.1679 29.1705 10.1274 28.5765C9.7472 23.0014 11.6646 21.0135 13.2047 19.4164C13.7162 18.8858 14.1996 18.3847 14.5502 17.7949C14.6316 17.6587 14.6672 17.5826 14.5869 17.3527C14.4744 17.0861 13.7222 16.41 13.3607 16.0849C13.0881 15.8404 12.8312 15.6086 12.6249 15.3949C10.7784 13.4805 9.91482 10.7254 10.1271 7.42763C10.1668 6.80775 10.6978 6.33638 11.3222 6.37688C11.9421 6.41663 12.4127 6.95175 12.3729 7.572C12.2541 9.41963 12.4821 12.0053 14.2446 13.8334C14.3949 13.9894 14.6237 14.1945 14.8648 14.4116C15.6381 15.1065 16.4368 15.825 16.7117 16.6121C17.0001 17.439 16.9254 18.2018 16.4848 18.9443C16.0007 19.7588 15.4026 20.3786 14.8243 20.9783C13.4027 22.4524 12.0602 23.8447 12.3726 28.4235C12.4146 29.0434 11.9466 29.58 11.3267 29.6224C11.3004 29.6242 11.2742 29.625 11.2487 29.625Z" fill="#0FD2FF"/>
<path opacity="0.3" d="M11.2493 29.25C10.8581 29.25 10.5285 28.9466 10.5019 28.551C10.1329 23.142 11.9081 21.3011 13.4749 19.677C14.0021 19.1302 14.4998 18.6139 14.8733 17.9869C15.006 17.7634 15.0593 17.568 14.9415 17.2294C14.8256 16.8971 14.0659 16.2142 13.6121 15.8062C13.3448 15.5659 13.0924 15.339 12.8955 15.135C10.6579 12.8145 10.3586 9.67573 10.5019 7.4516C10.5285 7.03835 10.8821 6.72148 11.2988 6.75148C11.712 6.7781 12.0255 7.13473 11.9989 7.54835C11.8751 9.47098 12.1174 12.1672 13.9751 14.0936C14.1353 14.2594 14.3681 14.469 14.6149 14.691C15.3525 15.354 16.1153 16.0399 16.3579 16.7359C16.6073 17.4517 16.5435 18.1117 16.1625 18.753C15.7009 19.53 15.1181 20.1341 14.5545 20.718C13.0736 22.2536 11.6745 23.7041 11.9985 28.449C12.0266 28.8622 11.7146 29.22 11.3014 29.2481C11.2838 29.2492 11.2665 29.25 11.2493 29.25Z" fill="#0FD2FF"/>
<path opacity="0.3" d="M24.7512 29.625C24.7272 29.625 24.7024 29.6243 24.6781 29.6228C24.0582 29.583 23.5876 29.0479 23.6273 28.4276C23.8009 25.7306 23.1994 23.6171 21.7347 21.7766C21.6211 21.6338 21.4047 21.3979 21.1756 21.1481C20.1856 20.07 19.4074 19.179 19.1416 18.3401C18.9188 17.6389 18.9781 16.9841 19.3219 16.3391C19.7494 15.5363 20.3986 14.9393 21.0263 14.3618C22.4329 13.0676 23.8876 11.7296 23.6273 7.57051C23.5883 6.95063 24.0597 6.41626 24.6799 6.37726C25.2946 6.33826 25.8342 6.80926 25.8732 7.42988C26.2006 12.6596 24.0904 14.6006 22.5503 16.0174C22.0167 16.5086 21.5558 16.9324 21.3083 17.397C21.2491 17.5084 21.2468 17.535 21.2862 17.6599C21.4231 18.0908 22.3752 19.1284 22.8331 19.6268C23.1008 19.9185 23.3322 20.1705 23.4957 20.3756C25.3039 22.6481 26.0817 25.3294 25.8732 28.572C25.8346 29.1675 25.3392 29.625 24.7512 29.625Z" fill="#0FD2FF"/>
<path opacity="0.3" d="M24.7507 29.25C24.7346 29.25 24.7181 29.2497 24.7016 29.2485C24.2883 29.2219 23.9748 28.8653 24.0015 28.4517C24.1815 25.6564 23.5545 23.4608 22.0282 21.543C21.9063 21.39 21.6952 21.1602 21.4515 20.8947C20.5263 19.8867 19.7411 18.9908 19.4988 18.2265C19.3057 17.6183 19.3548 17.0745 19.653 16.5154C20.0505 15.7692 20.6475 15.2194 21.2801 14.6374C22.683 13.3474 24.2726 11.8845 24.0015 7.54691C23.9756 7.13328 24.2898 6.77741 24.7031 6.75153C25.1223 6.72528 25.4726 7.03991 25.4985 7.45316C25.8146 12.5048 23.781 14.3753 22.296 15.7418C21.7368 16.2559 21.2542 16.7003 20.9767 17.2208C20.8706 17.4199 20.859 17.5542 20.9283 17.7735C21.0903 18.2835 22.008 19.2833 22.5562 19.8807C22.8195 20.1672 23.0467 20.4147 23.2016 20.6093C24.9495 22.8053 25.701 25.4022 25.4985 28.5484C25.473 28.9452 25.143 29.25 24.7507 29.25Z" fill="#0FD2FF"/>
<path opacity="0.3" d="M26.25 6.75H9.75C9.12862 6.75 8.625 6.24637 8.625 5.625C8.625 5.00363 9.12862 4.5 9.75 4.5H26.25C26.8714 4.5 27.375 5.00363 27.375 5.625C27.375 6.24637 26.8714 6.75 26.25 6.75Z" fill="#8338EC"/>
<path opacity="0.3" d="M26.25 6.375H9.75C9.336 6.375 9 6.039 9 5.625C9 5.211 9.336 4.875 9.75 4.875H26.25C26.664 4.875 27 5.211 27 5.625C27 6.039 26.664 6.375 26.25 6.375Z" fill="#8338EC"/>
<path opacity="0.3" d="M26.25 31.5H9.75C9.12862 31.5 8.625 30.9964 8.625 30.375C8.625 29.7536 9.12862 29.25 9.75 29.25H26.25C26.8714 29.25 27.375 29.7536 27.375 30.375C27.375 30.9964 26.8714 31.5 26.25 31.5Z" fill="#8338EC"/>
<path opacity="0.3" d="M26.25 31.125H9.75C9.336 31.125 9 30.789 9 30.375C9 29.961 9.336 29.625 9.75 29.625H26.25C26.664 29.625 27 29.961 27 30.375C27 30.789 26.664 31.125 26.25 31.125Z" fill="#8338EC"/>
<path opacity="0.3" d="M22.8749 29.625C22.5895 29.625 22.3042 29.517 22.0848 29.301C21.2362 28.4636 20.5417 27.7383 19.9837 27.1552C19.147 26.2815 18.2819 25.3777 17.9853 25.3147C17.7179 25.3777 16.8374 26.2968 15.9858 27.1852C15.4345 27.7605 14.7487 28.4763 13.9158 29.2998C13.4737 29.7367 12.7619 29.733 12.325 29.2912C11.8882 28.8495 11.8923 28.1373 12.3337 27.7005C13.1448 26.898 13.8194 26.1941 14.3609 25.629C15.9959 23.9227 16.8168 23.0662 18.0014 23.0662C19.1827 23.0666 19.9938 23.9133 21.6085 25.5997C22.1564 26.172 22.8385 26.8848 23.6647 27.6997C24.1068 28.1362 24.1113 28.8483 23.6752 29.2908C23.4558 29.5132 23.1652 29.625 22.8749 29.625Z" fill="#F7BC30"/>
<path opacity="0.3" d="M13.1251 29.25C12.9316 29.25 12.7384 29.1757 12.5918 29.0272C12.3004 28.7329 12.3031 28.2577 12.5978 27.9667C13.4127 27.1609 14.0892 26.4551 14.6326 25.8881C16.1937 24.2587 16.9774 23.4409 18.0019 23.4409C19.0231 23.4412 19.7971 24.249 21.3383 25.8585C21.8881 26.4326 22.5724 27.1477 23.4019 27.966C23.6971 28.257 23.7001 28.7317 23.4094 29.0265C23.1181 29.3212 22.6437 29.3246 22.3489 29.034C21.5037 28.2 20.8114 27.4774 20.2549 26.8961C19.1686 25.7614 18.3833 24.9409 18.0023 24.9409C17.6179 24.9409 16.8203 25.7737 15.7156 26.9261C15.1658 27.4995 14.4818 28.2135 13.6527 29.0332C13.5064 29.178 13.3156 29.25 13.1251 29.25Z" fill="#F7BC30"/>
<path d="M11.2498 28.875C11.0544 28.875 10.8894 28.7235 10.8759 28.5255C10.5186 23.2826 12.2323 21.5051 13.7447 19.9373C14.2873 19.3744 14.7999 18.8426 15.1952 18.1785C15.3501 17.9175 15.4693 17.607 15.2953 17.1064C15.1476 16.6834 14.4047 16.0155 13.8624 15.5276C13.6003 15.2921 13.3528 15.0694 13.1653 14.8751C11.0226 12.6533 10.7376 9.62513 10.8763 7.47638C10.8894 7.26976 11.0589 7.12051 11.2749 7.12613C11.4816 7.13926 11.6383 7.31776 11.6252 7.52476C11.4966 9.52276 11.7531 12.3296 13.7057 14.3546C13.8748 14.5301 14.1126 14.7439 14.3646 14.9704C15.0343 15.5723 15.7937 16.2551 16.0044 16.86C16.2853 17.6659 16.0453 18.2175 15.8406 18.5621C15.4011 19.3016 14.8337 19.8896 14.2854 20.4589C12.8128 21.9855 11.2903 23.5643 11.6252 28.4753C11.6391 28.6823 11.4831 28.8608 11.2764 28.875C11.2671 28.8746 11.2581 28.875 11.2498 28.875Z" fill="#0FD2FF"/>
<path d="M24.7505 28.875C24.7426 28.875 24.7344 28.8746 24.7261 28.8743C24.5195 28.8611 24.3628 28.6826 24.3759 28.4756C24.5623 25.5817 23.9094 23.3048 22.3216 21.3097C22.1911 21.1459 21.9766 20.9119 21.7276 20.6411C20.9998 19.848 20.0934 18.861 19.8564 18.1136C19.6959 17.6077 19.7368 17.1559 19.9839 16.692C20.3514 16.0016 20.9263 15.4732 21.5345 14.9137C22.9985 13.5664 24.6586 12.0397 24.3759 7.52362C24.3631 7.317 24.5203 7.13888 24.7269 7.12575C24.929 7.11525 25.1113 7.26937 25.1248 7.47675C25.4296 12.3495 23.5516 14.0775 22.0423 15.4657C21.458 16.0035 20.9536 16.4674 20.6461 17.0449C20.492 17.334 20.471 17.5699 20.5715 17.8868C20.7583 18.4763 21.6744 19.4738 22.2808 20.1341C22.5388 20.4158 22.7623 20.6584 22.9089 20.8429C24.5964 22.9631 25.3213 25.4756 25.1248 28.5244C25.1116 28.7227 24.9463 28.875 24.7505 28.875Z" fill="#0FD2FF"/>
<path d="M26.25 6H9.75C9.54263 6 9.375 5.83237 9.375 5.625C9.375 5.41763 9.54263 5.25 9.75 5.25H26.25C26.4574 5.25 26.625 5.41763 26.625 5.625C26.625 5.83237 26.4574 6 26.25 6Z" fill="#8338EC"/>
<path d="M26.25 30.75H9.75C9.54263 30.75 9.375 30.5824 9.375 30.375C9.375 30.1676 9.54263 30 9.75 30H26.25C26.4574 30 26.625 30.1676 26.625 30.375C26.625 30.5824 26.4574 30.75 26.25 30.75Z" fill="#8338EC"/>
<path d="M22.8748 28.875C22.7796 28.875 22.6843 28.839 22.6116 28.767C21.7705 27.9371 21.0801 27.216 20.5255 26.6366C19.2471 25.3012 18.5428 24.5662 18.0021 24.5659C17.4576 24.5659 16.7428 25.3121 15.445 26.6666C14.8967 27.2385 14.2146 27.9506 13.3892 28.767C13.2415 28.9125 13.0045 28.9117 12.859 28.764C12.7131 28.6166 12.7146 28.3796 12.862 28.2337C13.6806 27.4245 14.3586 26.7165 14.9035 26.1476C16.3911 24.5951 17.1377 23.8159 18.0025 23.8159C18.8635 23.8162 19.6003 24.5854 21.0677 26.118C21.6193 26.694 22.3056 27.4106 23.1388 28.2334C23.2866 28.3789 23.2877 28.6162 23.1426 28.7636C23.0687 28.8375 22.9716 28.875 22.8748 28.875Z" fill="#F7BC30"/>
</svg>
