<?xml version="1.0" encoding="utf-8"?>
<svg version="1.1" id="Layer_1" xmlns="http://www.w3.org/2000/svg" x="0px" y="0px" width="100%" viewBox="0 0 599 93" enable-background="new 0 0 599 93">
  <path fill="#8338EC" opacity="1.000000" stroke="none" d=" M82.270477,73.578018 C81.629333,79.506187 80.520851,80.156822 73.214455,80.034897 C68.921387,79.963264 66.947800,78.051331 66.978371,73.743523 C67.049217,63.759136 67.000900,53.773903 67.000900,43.338940 C63.397099,44.965473 62.185246,48.374409 60.097630,50.870770 C57.919537,53.475323 56.305069,56.543362 54.221397,59.236389 C50.042416,64.637505 43.937950,64.332886 39.939129,58.819397 C36.068405,53.482517 31.999680,48.289249 27.923424,42.908161 C26.360270,44.538441 27.052061,46.268063 27.038334,47.792896 C26.958923,56.614250 26.822098,65.441635 27.068361,74.256821 C27.207771,79.247215 24.284983,79.932373 20.473139,80.002846 C13.992931,80.122650 12.333284,79.062363 12.013796,74.499123 C11.944208,73.505196 12.000581,72.502380 12.000568,71.503662 C12.000363,55.357616 11.984029,39.211540 12.015179,23.065552 C12.020943,20.077291 11.010647,16.665121 15.226088,15.288126 C19.389849,13.928016 25.337831,15.137363 27.568825,18.120153 C33.113735,25.533566 38.669331,32.940685 44.086502,40.447124 C46.300518,43.515026 47.849308,43.260757 49.980877,40.303497 C55.503231,32.641972 61.160400,25.073137 66.934128,17.598909 C70.589951,12.866348 79.907494,13.929310 82.041687,19.542633 C83.030037,26.862761 82.399277,33.823830 82.463585,40.766937 C82.563469,51.549332 82.566856,62.334095 82.270477,73.578018 z"/>
  <path fill="#8338EC" opacity="1.000000" stroke="none" d=" M488.688171,73.517891 C487.363434,79.928360 485.911346,80.832260 478.289856,79.970284 C473.976257,79.482422 472.832520,76.588356 472.955566,72.605324 C473.129974,66.960411 472.941986,61.305286 473.020203,55.656071 C473.074097,51.761627 471.457672,49.521187 467.454102,48.972435 C462.678009,48.317795 462.351807,52.049526 462.136749,54.873085 C461.708740,60.491028 461.823792,66.171692 462.064240,71.811531 C462.218994,75.441475 461.574646,78.556038 457.967865,79.883408 C453.388641,81.568672 448.540649,79.635201 446.198303,75.325073 C446.900116,68.286507 446.350006,61.591492 446.315979,54.492744 C445.502869,50.590881 443.930969,48.288269 439.838684,48.993671 C435.732178,49.701530 435.324066,53.198154 435.127106,56.087719 C434.720123,62.057972 435.027374,68.075302 434.991791,74.072983 C434.961090,79.246933 433.831879,79.855408 426.645081,80.061142 C422.187775,80.188736 419.811737,79.039932 419.926758,73.979622 C420.169037,63.322231 419.991882,52.655487 420.005066,41.992603 C420.009460,38.435139 419.190430,34.413254 423.984467,33.066170 C428.486633,31.801098 432.868713,33.937592 435.405273,38.579479 C437.492188,35.145710 440.706909,33.241199 444.418182,33.118275 C448.675842,32.977257 453.008484,33.777714 455.911774,37.457924 C458.081207,40.207973 459.796387,40.326550 462.044189,37.503071 C469.075439,28.671053 484.390900,34.179459 486.277740,43.531013 C486.783417,46.037216 488.266541,48.356327 488.027100,51.487747 C489.084747,58.939034 488.179657,66.023880 488.688171,73.517891 z"/>
  <path fill="#8338EC" opacity="1.000000" stroke="none" d=" M212.241196,75.709152 C209.546585,81.426025 201.817276,81.831123 197.985550,76.478073 C196.890442,69.721855 197.845596,63.294674 197.311432,56.466736 C196.889008,53.818192 197.153381,51.464954 194.835968,49.957470 C190.454956,47.107620 186.345917,49.384094 186.063568,55.213280 C185.790527,60.850365 185.952240,66.511475 186.018753,72.160904 C186.056458,75.362389 186.201859,79.231705 182.342880,79.624588 C178.544357,80.011322 173.592651,82.372566 170.966217,76.452774 C169.944214,69.070442 170.803345,62.031384 170.320709,54.581985 C169.521133,50.676456 168.021286,48.331074 163.893402,48.985317 C159.728226,49.645477 159.342621,53.173889 159.135574,56.032417 C158.703461,61.998714 159.026337,68.018036 158.991943,74.015297 C158.962463,79.152664 157.793396,80.027122 151.199417,79.999573 C145.109100,79.974129 144.017578,79.082664 144.006973,73.942604 C143.984955,63.280506 143.996429,52.618328 144.002518,41.956188 C144.004562,38.389156 143.241745,34.388176 148.020279,33.065578 C152.500687,31.825495 156.916611,34.000126 159.297943,38.385002 C165.957718,30.372282 176.069046,31.332624 182.458984,40.786236 C183.048645,40.280369 183.679550,39.847572 184.177536,39.294987 C188.648178,34.334030 193.531204,31.539341 200.683365,33.904686 C208.243347,36.404907 210.387436,42.358662 211.972000,48.991226 C212.231995,50.079441 211.705750,51.347725 212.781067,52.657478 C212.035385,60.450233 212.773178,67.881142 212.241196,75.709152 z"/>
  <path fill="#8339EC" opacity="1.000000" stroke="none" d=" M137.246155,59.681656 C136.735626,73.779091 121.283676,83.699501 108.090668,80.525322 C100.038902,78.588097 94.268051,73.554375 90.577080,66.120995 C86.337410,57.582573 89.282974,45.457569 96.237503,38.860222 C106.883263,28.761240 121.305977,30.676352 130.607803,39.231632 C134.225189,42.558697 136.297455,47.114136 137.025635,52.511124 C137.942032,54.976017 137.342758,57.143471 137.246155,59.681656 z"/>
  <path fill="#8339EC" opacity="1.000000" stroke="none" d=" M235.532013,61.781452 C236.884491,66.697319 242.651184,69.192688 248.503494,67.755905 C250.708862,67.214470 252.891998,66.583000 255.089706,66.009628 C259.538513,64.848961 261.246582,67.761009 262.626892,71.120338 C264.045654,74.573242 262.304962,76.939651 259.665863,78.696297 C246.490967,87.465767 224.421936,79.873291 219.960739,64.612877 C214.044632,44.375683 229.035248,29.125168 247.962753,32.932331 C260.153412,35.384415 265.072632,41.075977 265.046356,52.280193 C265.036774,56.369717 263.310547,59.124714 259.479065,61.011280 C251.416016,62.101944 243.663956,61.148987 235.532013,61.781452 z"/>
  <path fill="#8338EC" opacity="1.000000" stroke="none" d=" M365.756836,37.288910 C367.299896,31.845186 371.416321,32.862423 374.826416,33.130707 C378.990112,33.458282 380.949341,36.288738 380.993805,40.361374 C381.053772,45.851498 381.136566,51.347244 380.955566,56.832191 C380.820312,60.930664 382.391998,63.412312 386.504456,64.170258 C391.368774,65.066780 394.451324,63.438068 396.016327,59.094643 C398.107849,53.289799 396.740875,47.288170 396.935577,41.386227 C397.201111,33.335606 402.452881,30.187410 409.767578,34.037586 C411.558441,34.980217 412.001007,36.626129 412.000000,38.497143 C411.993530,50.477119 411.984070,62.457119 412.006409,74.437057 C412.012115,77.497002 410.552429,79.743378 407.600677,79.872276 C403.408722,80.055336 398.301605,81.576233 396.736389,75.235229 C385.052338,86.294113 369.126099,76.873627 365.995239,63.477276 C365.702667,62.225475 365.361603,60.985008 365.104828,59.346786 C365.941711,51.882385 365.238373,44.783772 365.756836,37.288910 z"/>
  <path fill="#8338EC" opacity="1.000000" stroke="none" d=" M271.739563,37.393303 C274.395355,31.981848 282.309570,31.361313 285.922943,36.066803 C287.207550,37.739666 287.699310,37.816425 289.115265,36.379963 C296.152435,29.240673 310.539734,35.158302 314.248260,42.435005 C316.957947,47.751831 318.325470,52.986866 318.049744,58.879181 C317.808960,64.024567 317.817444,69.198372 318.051025,74.344414 C318.278625,79.358574 315.186646,79.949402 311.392029,80.005669 C304.965332,80.100960 303.167938,79.022980 303.038940,74.439255 C302.884552,68.954254 303.027435,63.461456 302.993256,57.972336 C302.956726,52.102791 300.191864,49.011375 295.047363,48.999828 C288.804779,48.985813 287.011047,50.973728 287.000885,57.938507 C286.993866,62.762451 286.798218,67.597618 287.065887,72.406677 C287.264893,75.981819 286.227539,79.404808 282.870148,79.729233 C279.266388,80.077469 274.371399,82.238953 271.962830,76.445786 C271.000366,63.331516 271.697388,50.585777 271.739563,37.393303 z"/>
  <path fill="#8338EC" opacity="1.000000" stroke="none" d=" M355.772003,33.762131 C361.381805,36.663857 361.779724,44.242504 356.475983,48.019577 C353.680176,48.961514 351.182648,48.330700 348.305969,48.244267 C345.385345,50.957695 345.206940,62.460579 347.533630,65.015709 C348.748718,66.350060 350.269073,66.100266 351.662018,65.949287 C353.889038,65.707901 355.432129,66.606911 356.889587,68.568260 C357.939697,70.977097 357.343994,73.142891 357.246918,75.679947 C356.873291,78.405106 355.473236,79.801994 353.336212,79.950638 C340.911102,80.814865 330.623932,78.055832 330.987518,61.482807 C331.071350,57.661369 330.994934,53.836418 330.969604,49.550758 C329.650452,47.915291 328.050842,48.787384 326.298340,48.270409 C320.536896,45.451717 323.292755,40.584713 323.324341,36.781025 C323.345306,34.252457 325.529999,32.405739 328.956665,33.759106 C330.237885,34.265121 331.002991,32.518284 330.996857,31.035795 C330.985138,28.204985 330.981995,25.373917 331.006439,22.543226 C331.046692,17.882835 333.990631,16.792099 337.923462,17.007280 C341.671814,17.212370 345.793060,16.986368 345.976959,22.425591 C346.083801,25.586014 346.005585,28.752815 346.003693,31.916742 C346.002655,33.633591 346.401917,34.661308 348.651611,33.219849 C351.132751,33.880447 353.305206,33.281322 355.772003,33.762131 z"/>
  <path fill="#83D3F7" opacity="1.000000" stroke="none" d=" M587.729492,14.852234 C587.532410,27.562752 581.068237,37.007561 572.309753,44.892784 C568.971069,47.898556 569.766541,49.450047 572.264893,51.777538 C579.922852,58.911858 585.402466,67.375763 587.904114,77.624443 C588.095215,78.407448 587.934021,79.276451 587.888184,80.514450 C586.855835,82.641579 585.196655,82.399963 583.220215,82.319824 C582.577271,82.170097 582.327759,82.080055 581.746887,81.775711 C581.237549,81.372704 581.059509,81.183998 580.677124,80.670357 C575.908508,73.840126 571.102478,67.641212 564.827087,62.536507 C558.528687,57.413071 559.667236,44.787106 566.125732,39.785862 C570.356628,36.509560 574.794250,33.259361 576.455688,27.393705 C576.716370,24.275314 576.490845,21.604303 573.355835,20.679083 C569.010559,19.396658 568.030334,23.286871 565.865601,25.974594 C563.543579,27.107086 561.471130,27.132351 558.996948,26.528355 C557.365662,25.864965 556.188721,25.040070 555.828979,23.734289 C555.124878,21.178719 553.582581,20.111420 551.052917,20.585060 C548.543152,21.054970 547.473206,22.762381 547.471497,25.238735 C547.471130,25.737465 547.342712,26.225513 547.038696,27.031376 C545.606262,28.724392 545.966675,29.847652 547.098083,31.221310 C549.637390,34.304169 552.068115,37.612041 555.600037,39.489929 C562.219116,43.009193 562.698975,58.495754 557.334778,62.195457 C550.437805,66.952400 546.193298,73.889290 540.734131,80.333008 C539.425354,81.447105 538.080933,81.394653 536.508057,81.857422 C535.603027,81.897690 535.114014,81.756683 534.411255,81.199005 C534.141357,71.383751 538.628662,63.653419 544.678772,56.981216 C552.424744,48.438774 552.444336,48.916725 544.902100,40.242599 C539.131165,33.605602 534.648743,26.063669 534.054688,16.469028 C534.611267,15.066240 535.528564,14.768358 536.909485,14.620337 C537.516846,14.598082 537.759033,14.597183 538.359009,14.641321 C540.301392,15.034506 541.840576,15.649269 543.862183,15.503822 C545.405640,15.492110 546.597046,15.537527 548.150635,15.401494 C548.762207,15.331613 549.009888,15.316461 550.366760,15.521990 C552.196594,16.010899 552.923340,16.257730 554.083862,16.404434 C559.126953,16.564999 563.775269,16.488161 568.830017,16.469734 C570.316772,16.393143 571.369629,16.198195 572.773865,15.726612 C574.995483,15.440360 576.835388,15.531070 579.055542,15.502460 C581.437317,15.503834 583.451050,15.589828 585.619019,14.371599 C586.508301,14.244431 587.003113,14.341893 587.729492,14.852234 z"/>
  <path fill="#8238EA" opacity="1.000000" stroke="none" d=" M588.802734,81.727325 C590.056458,82.380661 590.933594,82.862595 591.928955,83.628189 C592.846985,85.316597 592.389709,86.836914 592.246460,88.709465 C590.973755,90.748802 589.316345,89.958893 587.957153,89.963501 C570.012817,90.024261 552.068237,90.022194 534.123840,89.978355 C532.125610,89.973473 529.512512,90.815247 529.036621,87.557487 C528.657227,84.960014 528.895752,82.620827 532.524414,81.944183 C534.911072,81.293373 537.012451,81.291710 539.397217,80.649681 C540.007812,80.366936 540.250977,80.246590 540.871704,79.963112 C546.812073,78.893967 552.493469,80.259590 558.448120,78.807709 C560.013550,78.513084 561.170410,78.530472 562.762329,78.646675 C567.463501,80.051613 571.860535,79.305305 576.641357,79.508743 C578.575989,79.531647 580.071899,79.535393 581.723145,80.725662 C582.078857,80.998947 582.004761,81.041275 581.981934,81.005203 C584.033936,82.055473 586.283936,81.211441 588.802734,81.727325 z"/>
  <path fill="#8338EC" opacity="1.000000" stroke="none" d=" M550.302734,16.845642 C549.970032,17.127811 549.496887,17.097816 549.270874,17.026314 C547.552734,16.071386 545.915405,16.681723 543.950928,16.498917 C541.916443,16.479465 540.285278,16.546370 538.304810,16.233061 C537.953613,16.023064 538.016663,15.986676 538.035583,16.017780 C536.691467,14.980367 535.079224,15.754322 533.268433,15.278991 C529.623047,14.776512 528.616760,12.867430 528.980469,9.739842 C529.362854,6.451606 531.751465,7.007744 533.825684,7.012055 C553.070801,7.052057 572.315979,7.122566 591.802612,7.544487 C592.851929,9.300356 592.389282,10.813375 592.248962,12.678652 C591.410583,14.560328 590.271606,15.174257 588.337036,15.077155 C587.592590,15.118037 587.199158,15.098680 586.509888,15.091993 C584.476929,16.444630 582.334656,15.725428 580.018494,16.351540 C577.293884,16.640007 574.964905,16.251614 572.238647,16.813984 C565.614319,17.102654 559.418030,16.969730 552.784058,16.954929 C551.768372,16.841934 551.198242,16.719753 550.302734,16.845642 z"/>
  <path fill="#B182F3" opacity="1.000000" stroke="none" d=" M82.463364,73.813232 C82.067772,56.318058 82.041679,38.597668 82.044846,20.406509 C83.083023,20.297604 82.994537,21.165775 82.992195,21.973333 C82.942299,39.178238 82.887062,56.383121 82.463364,73.813232 z"/>
  <path fill="#B283F3" opacity="1.000000" stroke="none" d=" M271.548462,37.159729 C271.943634,49.665791 271.963104,62.393135 271.953400,75.591034 C270.917084,75.700523 271.005127,74.833855 271.008484,74.028084 C271.059448,61.812374 271.116852,49.596699 271.548462,37.159729 z"/>
  <path fill="#A36CF1" opacity="1.000000" stroke="none" d=" M235.577652,61.993607 C240.213272,59.917614 245.533157,61.425087 250.734314,61.037148 C253.200455,60.853214 255.690796,60.993397 258.646118,61.010910 C255.681259,63.227093 251.902512,61.666862 248.295395,61.928696 C244.228363,62.223919 240.122986,61.990650 235.577652,61.993607 z"/>
  <path fill="#A36CF1" opacity="1.000000" stroke="none" d=" M212.416931,75.902672 C212.146408,68.656975 212.259399,61.189236 212.603943,53.383774 C212.823837,60.590908 212.812149,68.135773 212.416931,75.902672 z"/>
  <path fill="#A46DF1" opacity="1.000000" stroke="none" d=" M488.904724,73.495560 C487.039673,66.980812 488.471283,59.875523 488.017273,52.373337 C490.239990,56.024952 488.525391,60.436581 488.943970,64.698265 C489.214386,67.451447 488.982361,70.253990 488.904724,73.495560 z"/>
  <path fill="#9453EE" opacity="1.000000" stroke="none" d=" M365.587341,37.106739 C365.815369,44.004658 366.442719,51.147865 365.387268,58.610542 C365.181549,51.749245 365.196472,44.544201 365.587341,37.106739 z"/>
  <path fill="#B180F3" opacity="1.000000" stroke="none" d=" M170.111603,54.596802 C171.952103,61.080822 170.579163,68.138084 170.959381,75.597534 C168.793365,71.001770 170.515549,65.705376 170.027710,60.536781 C169.856613,58.724056 170.028641,56.878944 170.111603,54.596802 z"/>
  <path fill="#A169F1" opacity="1.000000" stroke="none" d=" M446.103668,54.536797 C447.807190,60.781704 446.954346,67.539978 446.395691,74.624496 C446.119781,68.306480 446.076569,61.650372 446.103668,54.536797 z"/>
  <path fill="#9351EE" opacity="1.000000" stroke="none" d=" M197.094467,56.492893 C198.963730,62.338959 197.554871,68.782936 197.965668,75.622971 C195.806305,69.805336 197.554794,63.324547 197.094467,56.492893 z"/>
  <path fill="#A168F1" opacity="1.000000" stroke="none" d=" M348.086060,48.404655 C350.319214,48.035564 352.751953,48.030384 355.639648,48.037834 C353.640869,49.913158 350.910614,48.768436 348.086060,48.404655 z"/>
  <path fill="#A671F2" opacity="1.000000" stroke="none" d=" M137.401291,59.907516 C137.032700,57.998360 137.020279,55.899872 137.026459,53.352245 C138.837341,55.012276 137.780853,57.419224 137.401291,59.907516 z"/>
  <path fill="#5F317C" opacity="1.000000" stroke="none" d=" M589.017212,81.659454 C586.966248,82.045036 584.749084,82.249313 582.280884,81.204529 C583.641663,80.908073 585.324097,80.847008 587.423218,80.854683 C588.178162,81.089020 588.516602,81.254608 589.017212,81.659454 z"/>
  <path fill="#9B5DEF" opacity="1.000000" stroke="none" d=" M355.917297,33.600662 C353.975281,33.843555 351.829529,33.724388 349.362915,33.384956 C351.265900,33.189331 353.489746,33.213963 355.917297,33.600662 z"/>
  <path fill="#592C6B" opacity="1.000000" stroke="none" d=" M539.769775,80.859947 C538.101868,82.088348 535.907288,81.915001 533.329895,81.939041 C533.161743,81.626877 533.409424,81.365822 533.909790,81.004349 C534.500549,80.857918 534.838684,80.811897 535.430054,80.805099 C536.888916,80.325684 538.145386,80.520638 539.769775,80.859947 z"/>
  <path fill="#AC7AF2" opacity="1.000000" stroke="none" d=" M357.405334,75.908661 C357.029968,73.997498 357.013245,71.899811 357.021667,69.353554 C358.852753,71.012550 357.744415,73.426659 357.405334,75.908661 z"/>
  <path fill="#A26AF1" opacity="1.000000" stroke="none" d=" M592.376587,88.929260 C592.031433,87.664963 592.021484,86.220505 592.029419,84.343948 C593.773438,85.317520 592.884949,87.082458 592.376587,88.929260 z"/>
  <path fill="#A46CF1" opacity="1.000000" stroke="none" d=" M592.385498,12.905914 C592.035583,11.641827 592.021545,10.204536 592.025757,8.336000 C593.788269,9.301056 592.861877,11.072009 592.385498,12.905914 z"/>
  <path fill="#50275B" opacity="1.000000" stroke="none" d=" M533.071777,15.320431 C534.493530,14.902042 536.052673,14.841132 537.808899,15.747992 C536.998169,16.060190 535.941895,16.071497 534.488098,16.068188 C533.800354,15.879435 533.510071,15.705297 533.071777,15.320431 z"/>
  <path fill="#A874F2" opacity="1.000000" stroke="none" d=" M326.150146,48.428444 C327.482391,48.121891 329.037567,47.714554 330.717255,48.790787 C329.409424,48.980579 327.871857,48.872719 326.150146,48.428444 z"/>
  <path opacity="1.000000" stroke="none" d=" M121.438042,52.927490 C122.450256,61.399780 117.695435,66.573006 111.300301,65.182907 C106.187096,64.071457 104.065460,60.997078 104.089020,56.321239 C104.108322,52.490410 106.406303,49.548885 109.912552,48.170429 C114.247673,46.466114 118.464455,48.352528 121.438042,52.927490 z" style="fill: rgb(255, 255, 255);"/>
  <path opacity="1.000000" stroke="none" d=" M241.981018,54.000549 C239.534195,54.000549 237.543228,54.000549 235.521011,54.000549 C236.277847,49.272270 239.852448,46.088902 244.339462,46.007256 C247.613922,45.947666 249.805984,47.559353 249.898193,50.802719 C249.989716,54.021587 247.239685,53.922230 244.933731,53.995594 C244.102234,54.022045 243.269211,54.000298 241.981018,54.000549 z" style="fill: rgb(255, 255, 255);"/>
  <path fill="#F4BC34" opacity="1.000000" stroke="none" d=" M577.344116,26.691910 C579.648132,27.749205 578.482666,28.962465 577.832214,30.018721 C575.011047,34.599651 571.741333,38.848114 566.917114,41.433029 C564.031738,42.979019 562.814758,45.014252 563.035522,48.230186 C563.217590,50.881847 563.131714,53.557339 563.058716,56.219364 C562.998108,58.429153 563.830688,60.022366 565.733093,61.184757 C572.932312,65.583595 577.608643,72.213531 581.708069,79.712280 C580.487244,80.851715 579.079468,80.359024 577.326904,80.498863 C576.071106,80.496323 575.230774,80.507973 573.977905,80.349617 C565.519531,79.564720 557.468567,79.737762 549.001465,80.135414 C546.426392,80.772964 544.223877,80.382454 541.638916,80.493622 C540.965942,80.462402 540.697754,80.435455 540.148621,80.117928 C543.866516,72.444542 548.701782,65.772453 555.965515,61.231609 C557.861816,60.046165 558.671448,58.396263 558.682251,56.260132 C558.697327,53.271034 558.679443,50.281784 558.685120,47.292622 C558.689941,44.753208 557.700562,43.011230 555.318787,41.736431 C550.357666,39.081024 546.927490,34.803574 543.963806,30.114882 C542.865662,28.377548 542.511047,27.041176 545.538452,26.623543 C546.222534,26.458397 546.635193,26.323954 546.846130,26.497992 C550.743103,29.713943 554.110840,28.860786 557.483887,25.171711 C560.217834,25.139555 562.607849,25.149529 565.442749,25.157887 C569.268372,28.136106 572.822388,29.799709 577.344116,26.691910 z"/>
  <path fill="#FBF5EF" opacity="1.000000" stroke="none" d=" M557.719604,24.783081 C554.527832,31.340794 551.030273,31.951202 546.161987,26.832188 C545.822327,22.970875 546.391418,19.716936 550.670898,19.002010 C554.841370,18.305294 556.782532,20.726032 557.719604,24.783081 z"/>
  <path fill="#FAF7F4" opacity="1.000000" stroke="none" d=" M577.736450,26.385170 C572.731323,31.782560 569.879395,31.550112 566.006897,25.488653 C566.410156,21.221128 568.299561,18.519863 572.610291,18.999838 C576.574402,19.441216 578.101990,22.163099 577.736450,26.385170 z"/>
  <path fill="#624A91" opacity="1.000000" stroke="none" d=" M550.695068,16.392242 C557.556213,16.093140 564.301270,16.047398 571.510620,16.054382 C572.124817,16.254269 572.274658,16.401428 572.299927,16.837780 C571.644165,17.536039 570.990234,17.477695 570.074585,17.655712 C564.536011,17.751043 559.306213,17.788401 553.619263,17.834400 C552.641113,17.603144 552.087097,17.500341 551.237915,17.441969 C550.954895,17.436197 550.781616,17.309994 550.688843,17.256363 C550.590393,17.017021 550.584717,16.831310 550.695068,16.392242 z"/>
  <path fill="#634694" opacity="1.000000" stroke="none" d=" M579.659790,16.113211 C581.624939,14.627322 583.550171,15.052143 585.805115,15.048321 C584.992126,17.478077 582.677856,16.547722 580.395386,16.836128 C579.784180,16.631458 579.564880,16.489468 579.659790,16.113211 z"/>
  <path fill="#4F2E59" opacity="1.000000" stroke="none" d=" M579.532104,15.876729 C579.973938,15.878943 579.955017,16.327318 579.979248,16.550383 C577.965515,16.893856 575.927490,17.014265 573.457458,17.190319 C572.822327,17.327950 572.619202,17.409931 572.219055,17.229084 C572.021973,16.966251 571.978821,16.537544 571.976929,16.322329 C574.346741,16.029581 576.718506,15.952047 579.532104,15.876729 z"/>
  <path fill="#5C5D83" opacity="1.000000" stroke="none" d=" M538.227051,16.302944 C539.631592,15.976859 541.309509,15.930655 543.403992,15.935925 C544.048462,16.095654 544.276367,16.203911 544.272156,16.611115 C542.193481,16.800985 540.347046,16.691906 538.227051,16.302944 z"/>
  <path fill="#573049" opacity="1.000000" stroke="none" d=" M576.635681,80.329674 C578.190430,80.043190 579.559082,80.040085 581.338623,80.042999 C581.812256,80.204628 581.875000,80.360222 582.008301,80.757385 C580.683105,80.995110 579.287354,80.991264 577.474609,80.950287 C576.854980,80.813118 576.652283,80.713081 576.635681,80.329674 z"/>
  <path fill="#4C2651" opacity="1.000000" stroke="none" d=" M544.455566,16.951244 C544.039978,16.910063 543.912231,16.453461 543.866333,16.220430 C545.396179,16.110310 546.971802,16.233219 548.796143,16.655472 C547.653564,16.967350 546.262390,16.979889 544.455566,16.951244 z"/>
  <path fill="#5D447C" opacity="1.000000" stroke="none" d=" M540.131897,81.117508 C538.955200,81.087379 537.763000,81.034996 536.127075,80.913452 C536.840698,80.554626 537.997986,80.264946 539.511475,79.901306 C539.867615,79.827339 540.044006,79.944443 540.060791,80.048981 C540.256836,80.316162 540.436157,80.478806 540.346191,80.885017 C540.076782,81.128578 540.116455,81.095253 540.131897,81.117508 z"/>
  <path fill="#73A6CC" opacity="1.000000" stroke="none" d=" M571.737427,17.058784 C572.194153,16.995264 572.366272,17.024275 572.781921,17.149628 C572.163635,17.462471 571.301758,17.678976 570.102905,17.804588 C570.328186,17.526236 570.890564,17.338776 571.737427,17.058784 z"/>
  <path fill="#76A9CE" opacity="1.000000" stroke="none" d=" M551.200439,17.587452 C551.524414,17.470041 552.093872,17.503887 552.912781,17.690388 C552.590149,17.808262 552.018066,17.773485 551.200439,17.587452 z"/>
  <path fill="#76A9CE" opacity="1.000000" stroke="none" d=" M550.606140,16.236414 C550.797119,16.320175 550.783081,16.501469 550.682495,16.942745 C550.596008,17.202730 550.279419,17.202816 550.124756,17.165314 C550.027527,16.816351 550.171204,16.551729 550.606140,16.236414 z"/>
  <path fill="#875B41" opacity="1.000000" stroke="none" d=" M548.158447,80.091637 C556.332642,78.296951 564.903809,78.826378 573.858887,79.647583 C570.808838,81.209793 567.236938,80.201714 563.287292,80.270813 C561.847290,80.087120 560.858521,80.084297 559.499634,80.061188 C555.623596,80.956779 552.066406,80.373482 548.158447,80.091637 z"/>
  <path fill="#592C6B" opacity="1.000000" stroke="none" d=" M547.359253,79.786880 C551.252380,79.833633 554.718140,79.888664 558.656677,79.992310 C553.147217,81.398209 547.036682,80.706245 540.537842,81.152481 C540.076782,81.128578 540.052002,80.640892 540.064758,80.397202 C542.362305,80.034065 544.647095,79.914612 547.359253,79.786880 z"/>
  <path fill="#5D2B82" opacity="1.000000" stroke="none" d=" M563.207520,80.287216 C566.321472,80.060654 569.806946,80.031349 573.766968,79.919708 C574.892700,79.856308 575.543823,79.875252 576.508423,79.970245 C576.821838,80.046303 576.934998,80.480972 576.996338,80.697060 C572.564758,80.770256 568.071960,80.627357 563.207520,80.287216 z"/>
  <path fill="#5D3648" opacity="1.000000" stroke="none" d=" M561.940063,33.197433 C563.831909,33.844433 567.016968,31.771770 566.573120,35.306797 C566.244507,37.924068 564.061279,39.643585 561.261292,39.405128 C558.555054,39.174648 556.260254,37.377052 556.594910,34.673031 C556.930542,31.961241 559.829285,33.697765 561.940063,33.197433 z"/>
  <path fill="#FB6015" opacity="1.000000" stroke="none" d=" M554.119019,23.204905 C554.592712,26.020079 553.679565,27.454348 551.082947,27.049568 C548.982056,26.722067 548.418152,25.011438 549.199158,23.401655 C550.288086,21.157251 552.127014,21.252365 554.119019,23.204905 z"/>
  <path fill="#FB6219" opacity="1.000000" stroke="none" d=" M570.460083,26.801342 C568.425110,24.606649 568.729004,22.867361 571.117737,21.952820 C572.927246,21.260061 574.590088,22.172937 574.712830,24.144129 C574.873413,26.722864 573.206848,27.547771 570.460083,26.801342 z"/>
</svg>